# xmcd CD database file
#
# Track frame offsets:
#	150
#	10885
#	25280
#	42085
#	57307
#	64882
#	77635
#	97135
#	121360
#	134710
#	166507
#	178360
#	190810
#	219610
#	233260
#	244960
#	259135
#	276610
#	301432
#
# Disc length: 4508 seconds
#
# Revision: 10
# Processed by: cddbd v1.5PL3 Copyright (c) Steve Scherf et al.
# Submitted via: CDex 1.51
#
DISCID=17119a13
DTITLE=Siegel-Schwall Band - ...Where We Walked (1966-1970)
DYEAR=1991
DGENRE=Blues
TTITLE0=Down In The Bottom
TTITLE1=I Have Had All I Can Take
TTITLE2=So Glad You're Mine
TTITLE3=Going To New York
TTITLE4=Mama/Papa
TTITLE5=I've Got To Go Now
TTITLE6=Bring It With You When You Come
TTITLE7=Slow Blues In A
TTITLE8=I Liked It Where We Walked
TTITLE9=That's Why I Treat My Baby So Fine
TTITLE10=Think
TTITLE11=Louise Louise Blues
TTITLE12=I Don't Want You To Be My Girl
TTITLE13=Do You Remember
TTITLE14=Walk In My Mind
TTITLE15=Geronimo
TTITLE16=Tell Me
TTITLE17=Angel Food Cake
TTITLE18=A Sunshine Day In My Mind
EXTD=Vanguard Compilation\nVCD135/36\nCompilation Producers - Jim Bessman and Corky Siegal\nEngineered for Release by Jeff Zaraya YEAR: 1991
EXTT0=
EXTT1=
EXTT2=
EXTT3=
EXTT4=
EXTT5=
EXTT6=
EXTT7=
EXTT8=
EXTT9=
EXTT10=
EXTT11=
EXTT12=
EXTT13=
EXTT14=
EXTT15=
EXTT16=
EXTT17=
EXTT18=
PLAYORDER=
